Coordinates
version=1
nRows=20
nColumns=63
inDegrees=yes

Units are S.I. units (second, meters, Newtons, ...)
If the header above contains a line with 'inDegrees', this indicates whether rotational values are in degrees (yes) or radians (no).

endheader
time	pelvis_tilt	pelvis_list	pelvis_rotation	pelvis_tx	pelvis_ty	pelvis_tz	hip_flexion_r	hip_adduction_r	hip_rotation_r	knee_angle_r	knee_angle_r_beta	ankle_angle_r	subtalar_angle_r	mtp_angle_r	hip_flexion_l	hip_adduction_l	hip_rotation_l	knee_angle_l	knee_angle_l_beta	ankle_angle_l	subtalar_angle_l	mtp_angle_l	L5_S1_Flex_Ext	L5_S1_Lat_Bending	L5_S1_axial_rotation	L4_L5_Flex_Ext	L4_L5_Lat_Bending	L4_L5_axial_rotation	L3_L4_Flex_Ext	L3_L4_Lat_Bending	L3_L4_axial_rotation	L2_L3_Flex_Ext	L2_L3_Lat_Bending	L2_L3_axial_rotation	L1_L2_Flex_Ext	L1_L2_Lat_Bending	L1_L2_axial_rotation	L1_T12_Flex_Ext	L1_T12_Lat_Bending	L1_T12_axial_rotation	Abs_r3	Abs_r2	Abs_r1	Abs_t1	Abs_t2	neck_flexion	neck_bending	neck_rotation	arm_flex_r	arm_add_r	arm_rot_r	elbow_flex_r	pro_sup_r	wrist_flex_r	wrist_dev_r	arm_flex_l	arm_add_l	arm_rot_l	elbow_flex_l	pro_sup_l	wrist_flex_l	wrist_dev_l
3.033898	1.854885	1.863197	87.705997	0.197578	0.525187	0.963502	1.128268	6.588004	7.721052	22.529947	0.393222	51.936259	-0.242684	0.000000	-2.405242	-1.157601	-6.108170	19.129648	0.333875	52.974647	2.561956	0.000000	-0.229073	0.707358	0.536325	-0.425412	0.940786	0.569845	-0.376344	1.719870	0.569845	-0.261808	1.719870	0.469284	-0.212717	1.442445	0.435764	-0.130892	1.095698	0.402244	-1.636246	8.001776	2.982878	0.000000	0.000000	12.304958	1.667563	5.539175	6.562771	-15.822932	63.254873	19.704294	68.091902	0.567677	6.292487	3.654671	-12.239274	71.329523	20.672020	66.093359	-9.293613	-0.690740
3.050847	1.753067	1.928444	87.414393	0.197952	0.525422	0.962986	1.183938	6.438054	7.778384	22.818525	0.398258	52.077095	0.040707	0.000000	-2.576370	-0.988605	-6.139352	18.968120	0.331056	52.971926	2.518805	0.000000	-0.231674	0.696369	0.589894	-0.430242	0.926171	0.626763	-0.380617	1.693153	0.626763	-0.264780	1.693153	0.516157	-0.215132	1.420037	0.479289	-0.132378	1.078676	0.442421	-1.654824	7.877471	3.280815	0.000000	0.000000	12.528252	1.289622	5.561783	6.470311	-15.805397	63.234087	19.694111	68.057534	0.537054	6.232344	3.601623	-12.271099	71.395342	20.690094	66.205767	-9.346436	-0.788593
3.067797	1.680321	1.997902	87.143028	0.198290	0.525642	0.962491	1.228046	6.321554	7.844555	23.085958	0.402926	52.215198	0.305825	0.000000	-2.752039	-0.858985	-6.212347	18.819494	0.328462	52.977520	2.535620	0.000000	-0.235060	0.688488	0.639780	-0.436529	0.915688	0.679767	-0.386180	1.673989	0.679767	-0.268650	1.673989	0.559808	-0.218276	1.403964	0.519822	-0.134313	1.066467	0.479835	-1.679008	7.788309	3.558267	0.000000	0.000000	12.754252	0.951341	5.530574	6.374590	-15.801430	63.239391	19.680930	68.030050	0.488699	6.098808	3.559676	-12.292189	71.515896	20.691990	66.234127	-9.395300	-0.868233
3.084746	1.639157	2.071819	86.900601	0.198581	0.525850	0.962041	1.257841	6.242538	7.914889	23.326857	0.407130	52.345435	0.541780	0.000000	-2.928716	-0.771799	-6.316954	18.686277	0.326137	52.991089	2.595882	0.000000	-0.238732	0.684038	0.684447	-0.443349	0.909771	0.727225	-0.392212	1.663171	0.727225	-0.272847	1.663171	0.598891	-0.221686	1.394891	0.556113	-0.136411	1.059575	0.513335	-1.705237	7.737978	3.806689	0.000000	0.000000	12.984975	0.694914	5.455456	6.284153	-15.810372	63.282414	19.662045	68.002944	0.439153	5.921838	3.534442	-12.296577	71.702509	20.669334	66.180829	-9.428985	-0.925968
3.101695	1.590160	2.156294	86.700005	0.198925	0.526000	0.961652	1.275211	6.174717	8.017181	23.558463	0.411173	52.479132	0.702118	0.000000	-3.099228	-0.700612	-6.481035	18.585550	0.324379	53.024455	2.742081	0.000000	-0.242777	0.676337	0.722630	-0.450862	0.899528	0.767795	-0.398859	1.644445	0.767795	-0.277470	1.644445	0.632302	-0.225443	1.379185	0.587137	-0.138723	1.047645	0.541973	-1.734135	7.650854	4.019053	0.000000	0.000000	13.246580	0.608543	5.313473	6.294333	-15.799105	64.004393	19.535215	67.346548	0.313656	5.539630	3.352163	-12.651131	68.035301	21.427047	69.362639	-9.879715	-0.472740
3.118644	1.589378	2.240485	86.550019	0.199120	0.526170	0.961284	1.259039	6.157855	8.112096	23.728293	0.414137	52.582718	0.815715	0.000000	-3.264581	-0.673617	-6.578071	18.491991	0.322746	53.048410	2.825935	0.000000	-0.245857	0.675808	0.751041	-0.456580	0.898825	0.797981	-0.403918	1.643160	0.797981	-0.280989	1.643160	0.657161	-0.228302	1.378108	0.610221	-0.140482	1.046827	0.563281	-1.756128	7.644877	4.177066	0.000000	0.000000	13.533761	0.659871	5.219836	6.241005	-15.808060	64.314827	19.453416	67.079151	0.206536	5.219330	3.273135	-12.780689	66.558896	21.729608	70.669569	-10.058567	-0.247341
3.135593	1.614544	2.315284	86.395684	0.199296	0.526351	0.960961	1.231154	6.166381	8.198364	23.859756	0.416431	52.668709	0.946128	0.000000	-3.427306	-0.691133	-6.799835	18.396954	0.321087	53.082920	3.005322	0.000000	-0.247744	0.679695	0.776620	-0.460085	0.903995	0.825159	-0.407019	1.652611	0.825159	-0.283147	1.652611	0.679543	-0.230055	1.386035	0.631004	-0.141561	1.052848	0.582465	-1.769610	7.688850	4.319328	0.000000	0.000000	13.824373	0.881272	5.262630	6.190062	-15.842122	64.570010	19.387871	66.921576	0.094717	4.917731	3.295314	-12.722346	67.071116	21.625886	70.221823	-10.003690	-0.293679
3.152542	1.673505	2.373942	86.287326	0.199351	0.526533	0.960695	1.193913	6.213323	8.275132	23.938413	0.417804	52.727146	1.036887	0.000000	-3.562156	-0.740273	-6.965797	18.317741	0.319705	53.105569	3.120300	0.000000	-0.248548	0.688854	0.792375	-0.461579	0.916175	0.841899	-0.408340	1.674879	0.841899	-0.284066	1.674879	0.693328	-0.230802	1.404710	0.643805	-0.142020	1.067034	0.594282	-1.775354	7.792451	4.406954	0.000000	0.000000	14.133854	1.271306	5.394332	6.079817	-15.896240	64.433128	19.391639	67.083144	-0.018810	4.684868	3.400375	-12.493226	69.271348	21.176917	68.265216	-9.735785	-0.547042
3.169492	1.762095	2.415075	86.214097	0.199324	0.526722	0.960496	1.148027	6.300065	8.373994	23.961486	0.418207	52.749651	1.065232	0.000000	-3.671435	-0.826074	-7.143677	18.252748	0.318571	53.121800	3.238362	0.000000	-0.249167	0.702601	0.800341	-0.462727	0.934460	0.850363	-0.409356	1.708305	0.850363	-0.284772	1.708305	0.700299	-0.231376	1.432745	0.650277	-0.142374	1.088329	0.600256	-1.779772	7.947966	4.451258	0.000000	0.000000	14.446985	1.811766	5.610940	5.917724	-15.963217	63.937691	19.457190	67.504373	-0.139071	4.527901	3.574941	-12.116365	72.940654	20.419562	65.007466	-9.296456	-0.999358
3.186441	1.884241	2.431770	86.188965	0.199211	0.526906	0.960373	1.101989	6.430501	8.470846	23.925881	0.417585	52.730271	1.029137	0.000000	-3.730790	-0.949178	-7.262531	18.230219	0.318177	53.130739	3.304183	0.000000	-0.248859	0.721166	0.799100	-0.462156	0.959151	0.849044	-0.408851	1.753443	0.849044	-0.284421	1.753443	0.699213	-0.231091	1.470602	0.649269	-0.142198	1.117086	0.599325	-1.777576	8.157973	4.444356	0.000000	0.000000	14.757928	2.483557	5.880221	5.681080	-16.044751	62.968472	19.624156	68.262917	-0.238481	4.479296	3.808313	-11.616607	77.884553	19.407933	60.650277	-8.739662	-1.637635
3.203390	2.012672	2.443512	86.159277	0.199045	0.527113	0.960324	1.051159	6.547778	8.490453	23.860277	0.416440	52.706786	1.085548	0.000000	-3.791802	-1.071066	-7.374281	18.202126	0.317687	53.114629	3.329955	0.000000	-0.251516	0.742042	0.798159	-0.467090	0.986916	0.848043	-0.413215	1.804202	0.848043	-0.287457	1.804202	0.698389	-0.233558	1.513173	0.648504	-0.143716	1.149424	0.598619	-1.796552	8.394132	4.439118	0.000000	0.000000	15.099573	3.202954	6.171474	5.410798	-16.137727	61.695974	19.845213	69.325374	-0.329314	4.474396	4.093910	-11.008586	83.935403	18.159207	55.421162	-8.157007	-2.496557
3.220339	2.156373	2.437250	86.142930	0.198831	0.527319	0.960316	0.994371	6.685308	8.531967	23.746994	0.414463	52.642882	1.077778	0.000000	-3.827009	-1.209464	-7.472235	18.193841	0.317542	53.086722	3.342090	0.000000	-0.253491	0.765875	0.794174	-0.470758	1.018613	0.843810	-0.416460	1.862148	0.843810	-0.289715	1.862148	0.694902	-0.235392	1.561772	0.645267	-0.144845	1.186340	0.595631	-1.810660	8.663728	4.416959	0.000000	0.000000	15.484206	3.968245	6.451758	5.113753	-16.243620	60.201874	20.116449	70.576846	-0.414273	4.542353	4.403544	-10.317510	90.919751	16.722726	49.504761	-7.597410	-3.500976
3.237288	2.308370	2.419802	86.152720	0.198530	0.527522	0.960345	0.928672	6.821854	8.523702	23.596141	0.411830	52.549871	1.065809	0.000000	-3.832778	-1.344582	-7.468017	18.215924	0.317928	53.038667	3.265569	0.000000	-0.255161	0.792220	0.784990	-0.473860	1.053653	0.834052	-0.419204	1.926204	0.834052	-0.291624	1.926204	0.686867	-0.236943	1.615495	0.637805	-0.145799	1.227149	0.588743	-1.822590	8.961752	4.365881	0.000000	0.000000	15.950673	4.740288	6.696680	4.797133	-16.361452	58.485068	20.435750	72.057922	-0.466853	4.700489	4.723038	-9.557144	98.714340	15.118500	43.101298	-7.103736	-4.607561
3.254237	2.466351	2.385443	86.192712	0.198126	0.527703	0.960395	0.863116	6.952844	8.456532	23.420225	0.408760	52.433639	1.053820	0.000000	-3.790862	-1.479041	-7.373987	18.290214	0.319224	52.985355	3.124679	0.000000	-0.254179	0.820907	0.769819	-0.472035	1.091807	0.817932	-0.417590	1.995954	0.817932	-0.290501	1.995954	0.673591	-0.236030	1.673994	0.625478	-0.145238	1.271585	0.577364	-1.815572	9.286268	4.281500	0.000000	0.000000	16.512135	5.512335	6.888111	4.480342	-16.503778	56.699762	20.792783	73.625984	-0.494738	4.939425	5.036837	-8.755902	107.000968	13.422398	36.423570	-6.695258	-5.803064
3.271186	2.623254	2.349540	86.247781	0.197641	0.527874	0.960477	0.790021	7.072134	8.346458	23.237246	0.405566	52.295976	1.030827	0.000000	-3.724752	-1.605815	-7.221105	18.402140	0.321178	52.926910	2.938274	0.000000	-0.253066	0.851384	0.749431	-0.469969	1.132341	0.796270	-0.415762	2.070055	0.796270	-0.289229	2.070055	0.655752	-0.234997	1.736142	0.608913	-0.144602	1.318794	0.562073	-1.807627	9.631027	4.168110	0.000000	0.000000	17.192571	6.242177	7.061008	4.172316	-16.660906	54.804671	21.178265	75.371291	-0.451950	5.256069	5.337517	-7.933409	115.551544	11.677198	29.694739	-6.390305	-7.039864
3.288136	2.770143	2.291923	86.346870	0.197039	0.527999	0.960568	0.735430	7.167849	8.151062	23.054356	0.402374	52.153751	1.033591	0.000000	-3.604120	-1.709864	-6.941990	18.561797	0.323964	52.855755	2.645957	0.000000	-0.246596	0.882511	0.719351	-0.457953	1.173740	0.764310	-0.405132	2.145738	0.764310	-0.281834	2.145738	0.629432	-0.228989	1.799617	0.584472	-0.140905	1.367010	0.539513	-1.761410	9.983143	4.000812	0.000000	0.000000	17.935069	6.942096	7.239983	3.868734	-16.834765	52.906369	21.585426	77.099457	-0.358572	5.660647	5.607995	-7.127176	123.981901	9.975132	23.091556	-6.138109	-8.267498
3.305085	2.915133	2.243394	86.459350	0.196381	0.528123	0.960716	0.684050	7.245821	7.872262	22.895910	0.399609	52.013534	1.097160	0.000000	-3.469242	-1.802715	-6.601668	18.758762	0.327402	52.773293	2.275274	0.000000	-0.241498	0.914656	0.684363	-0.448485	1.216493	0.727136	-0.396756	2.223895	0.727136	-0.276008	2.223895	0.598818	-0.224255	1.865167	0.556045	-0.137992	1.416802	0.513272	-1.724993	10.346772	3.806222	0.000000	0.000000	18.724103	7.581789	7.427633	3.614221	-17.023212	51.186049	21.960166	78.633648	-0.238383	6.051955	5.862827	-6.356134	131.940580	8.378998	16.864421	-5.967358	-9.479919
3.322034	3.050276	2.181086	86.589594	0.195668	0.528208	0.960866	0.656475	7.314662	7.586943	22.753451	0.397123	51.880394	1.149624	0.000000	-3.303075	-1.878379	-6.200934	18.982966	0.331315	52.686026	1.839859	0.000000	-0.233209	0.946715	0.647736	-0.433093	1.259131	0.688220	-0.383139	2.301842	0.688220	-0.266535	2.301842	0.566769	-0.216558	1.930541	0.526286	-0.133256	1.466461	0.485802	-1.665789	10.709426	3.602514	0.000000	0.000000	19.507990	8.160618	7.617768	3.351017	-17.216508	49.495064	22.335403	79.986448	-0.081289	6.490377	6.089260	-5.643972	139.158043	6.942385	11.196409	-5.813695	-10.588547
3.338983	3.178555	2.104019	86.736409	0.194955	0.528260	0.961042	0.667298	7.382496	7.294525	22.642647	0.395189	51.760810	1.205905	0.000000	-3.101638	-1.947172	-5.763631	19.232930	0.335678	52.601815	1.371815	0.000000	-0.222840	0.977715	0.610673	-0.413837	1.300361	0.648840	-0.366104	2.377216	0.648840	-0.254684	2.377216	0.534339	-0.206929	1.993756	0.496171	-0.127331	1.514480	0.458004	-1.591725	11.060106	3.396378	0.000000	0.000000	20.264721	8.667264	7.739742	3.084446	-17.392953	47.858801	22.683825	81.117853	0.087942	6.918575	6.291032	-5.015721	145.384644	5.710292	6.282455	-5.654753	-11.532152
3.355932	3.285151	2.023010	86.901718	0.194239	0.528281	0.961241	0.712879	7.436982	7.011830	22.571925	0.393954	51.671124	1.262525	0.000000	-2.863809	-1.993375	-5.274799	19.524929	0.340774	52.534433	0.873616	0.000000	-0.212808	1.006220	0.571034	-0.395207	1.338272	0.606724	-0.349623	2.446523	0.606724	-0.243219	2.446523	0.499655	-0.197614	2.051884	0.463965	-0.121599	1.558635	0.428276	-1.520069	11.382560	3.175922	0.000000	0.000000	20.933009	9.089757	7.842917	2.840692	-17.560738	46.381910	23.006038	81.980028	0.293545	7.349746	6.448692	-4.495327	150.340294	4.721706	2.320982	-5.494896	-12.260722
